<?xml version="1.0" encoding="UTF-8"?>
<svg data-name="图层 1" version="1.1" viewBox="0 0 44 44" xmlns="http://www.w3.org/2000/svg" xmlns:cc="http://creativecommons.org/ns#" xmlns:dc="http://purl.org/dc/elements/1.1/" xmlns:rdf="http://www.w3.org/1999/02/22-rdf-syntax-ns#">
 <defs>
  <style>.cls-1{fill:#409eff;fill-rule:evenodd;}</style>
 </defs>
 <title>element plus-logo-small 副本</title>
 <path id="element_plus-logo-small" class="cls-1" d="M37.41,32.37c0,1.57-.83,1.93-.83,1.93L21.51,43A1.69,1.69,0,0,1,20,43S5.2,34.4,4.66,34a1.29,1.29,0,0,1-.55-1V15.24c0-.78,1-1.33,1-1.33L19.86,5.36a2,2,0,0,1,1.79,0l14.46,8.41a2.06,2.06,0,0,1,1.25,2.06V32.37Zm-5.9-17L21.35,9.5a1.59,1.59,0,0,0-1.41,0L8.33,16.15s-.77.46-.76,1.08,0,13.92,0,13.92A1,1,0,0,0,8,31.9c.43.3,12,7,12,7a1.31,1.31,0,0,0,1.19,0C21.91,38.5,33,32.11,33,32.11s.65-.28.65-1.51V27.13l-13,7.9V32a3.05,3.05,0,0,1,1-2.07L33.2,23a2.44,2.44,0,0,0,.55-1.46V18.43L20.64,26.35v-3.2a2.22,2.22,0,0,1,.83-1.79ZM41.07,4.22a.39.39,0,0,0-.37-.42H38V1.06c0-.16-.26-.22-.53-.22L36,1.08c-.18,0-.31.12-.31.23V3.8H33a.4.4,0,0,0-.36.37v2h3V9c0,.16.26.27.54.23l1.51-.25c.18,0,.29-.13.29-.23V6.14h3Z" data-name="element plus-logo-small"/>
 <g stroke="#fff" stroke-linecap="round" stroke-linejoin="round" stroke-width=".079167">
  <path d="m19.982 42.921c-0.37643-0.20021-8.1407-4.7216-11.748-6.8415-3.515-2.0654-3.705-2.1891-3.9026-2.5407l-0.17452-0.31052v-9.0815c0-10.132-0.043039-9.3691 0.55742-9.8799 0.16467-0.14007 1.1665-0.75603 2.2262-1.3688 1.0597-0.61276 4.4619-2.5833 7.5604-4.379 5.0718-2.9393 5.6758-3.2691 6.0563-3.3073 0.26624-0.0267 0.54184-8.197e-4 0.74469 0.069929 0.26569 0.092668 13.914 7.9685 15.076 8.6994 0.19594 0.1233 0.44015 0.34868 0.54268 0.50085 0.4219 0.62615 0.40601 0.24682 0.40746 9.7223 8.55e-4 5.5683-0.02741 8.9075-0.07685 9.0786-0.20606 0.71304-0.03053 0.59738-7.0978 4.6769-3.6521 2.1082-7.1549 4.1285-7.7839 4.4897-1.0633 0.61046-1.1752 0.65663-1.5913 0.65663-0.31727 0-0.54904-0.05394-0.79588-0.18522zm3.1426-5.0795c8.0348-4.6099 9.9144-5.7041 10.108-5.8846 0.38803-0.36172 0.45335-0.78322 0.45335-2.9256 0-1.5147-0.02144-1.9254-0.09896-1.8952-0.05443 0.02118-2.1652 1.295-4.6907 2.8307-2.5254 1.5357-5.4046 3.2861-6.3982 3.8898l-1.8065 1.0976 0.05048-3.5292 0.25266-0.51252c0.13896-0.28189 0.37052-0.6235 0.51459-0.75914 0.14406-0.13564 2.8091-1.7722 5.9224-3.6368 3.1132-1.8646 5.7552-3.4906 5.8709-3.6134 0.40039-0.42474 0.46244-0.79103 0.46244-2.7299 0-0.97194-0.01368-1.7672-0.0304-1.7672s-2.9469 1.7621-6.5115 3.9158l-6.4811 3.9158-0.02135-1.7532c-0.02394-1.9666 0.0293-2.2755 0.47977-2.7836 0.1696-0.19128 1.9124-1.2751 5.2416-3.2596 2.7431-1.6352 5.0158-3.0011 5.0503-3.0355 0.061441-0.06107-9.7018-5.7508-10.289-5.9962-0.70478-0.29448-0.55818-0.36392-6.9529 3.2934-3.2221 1.8428-5.9772 3.4387-6.1224 3.5464-0.14522 0.10768-0.33212 0.30743-0.41533 0.4439-0.14605 0.23951-0.15131 0.50035-0.15159 7.5129l-2.959e-4 7.2648 0.25729 0.27008c0.14151 0.14854 0.95199 0.67684 1.8011 1.174 3.0636 1.7938 10.413 6.0519 10.529 6.1002 0.06531 0.0272 0.30023 0.03897 0.52204 0.02616 0.35548-0.02053 0.64645-0.1628 2.4542-1.2z" fill="#e76f00"/>
  <path d="m35.803 9.1375c-0.12402-0.072237-0.13854-0.23377-0.13854-1.5414v-1.4607h-3.0084v-1.0169c0-0.88462 0.01883-1.0339 0.14478-1.1479 0.12322-0.11151 0.35309-0.13102 1.5438-0.13102h1.399v-1.3082c0-1.2841 0.0033-1.3095 0.17813-1.3751 0.2762-0.10365 1.4963-0.26615 1.7615-0.23459l0.2375 0.028269 0.04316 2.8896h1.4176c1.7054 0 1.7134 0.00362 1.6365 0.73945-0.02709 0.25921-0.04926 0.71544-0.04926 1.0138v0.54256h-3.0084v1.3412c0 0.80334-0.03156 1.3607-0.07869 1.3898-0.06588 0.040716-1.7787 0.3594-1.9005 0.35361-0.02177-0.00104-0.10193-0.038194-0.17813-0.082576z" fill="#53829e"/>
  <path d="m20.247 42.946c-0.46806-0.18816-14.532-8.4176-15.3-8.9525-0.79271-0.55236-0.72401 0.42686-0.69392-9.8915 0.020711-7.1015 0.048197-9.1133 0.12715-9.3068 0.17041-0.41752 0.076194-0.35908 7.6134-4.723 8.6532-5.0101 8.482-4.921 9.1171-4.7456 0.30434 0.084033 8.1454 4.5666 14.277 8.1616 1.1392 0.66799 1.5635 1.037 1.7122 1.4893 0.12336 0.37512 0.19916 16.348 0.08407 17.716l-0.07302 0.86835-0.35467 0.31915c-0.19507 0.17553-1.0815 0.75204-1.9699 1.2811-2.4436 1.4554-12.88 7.4659-13.332 7.6778-0.40593 0.19054-0.8906 0.23301-1.2071 0.10579zm1.2598-4.1198c1.2163-0.61139 11.261-6.4255 11.684-6.7627 0.50216-0.40068 0.52994-0.55015 0.53225-2.8636 0.0011-1.1392-0.02289-2.0964-0.0534-2.127-0.05408-0.05429-2.3899 1.3387-9.405 5.6086l-3.4438 2.0962-0.02139-1.6138-0.0214-1.6138 0.23429-0.46412c0.45156-0.89453 0.21669-0.73274 6.99-4.8153 1.6857-1.016 3.5916-2.1769 4.2354-2.5797 1.6054-1.0044 1.5577-0.9039 1.5893-3.3449 0.01299-1.0015-0.0084-1.868-0.04746-1.9256-0.06804-0.10026-1.2286 0.58462-11.394 6.7237-0.70683 0.42687-1.3608 0.81665-1.4534 0.86617l-0.16824 0.09004 0.03167-1.8084c0.04249-2.4269-0.03697-2.2784 1.8459-3.4488 0.5225-0.32478 2.6778-1.6269 4.7896-2.8937s3.9109-2.3586 3.9979-2.4263c0.15683-0.12196 0.15646-0.1246-0.03958-0.27879-0.40894-0.32162-9.2615-5.4779-10.015-5.8331-0.21771-0.10269-0.52689-0.18705-0.68707-0.18748-0.41326-0.0011-1.835 0.74541-6.3984 3.3596-6.8972 3.9511-6.635 3.7762-6.7375 4.4962-0.03261 0.229-0.061891 3.5711-0.06507 7.4269l-0.00578 7.0106 0.25729 0.24502c0.14151 0.13476 0.50667 0.40423 0.81146 0.59883 0.83551 0.53344 11.314 6.6184 11.598 6.735 0.24263 0.09966 0.87265-0.02548 1.3589-0.26992z" fill="#53829e"/>
  <path d="m35.826 8.9907c-0.04757-0.088885-0.08195-0.73656-0.08195-1.5438v-1.3906h-3.0084v-0.94552c0-1.249-0.08217-1.192 1.7178-1.192h1.3659l0.04342-2.6521 0.38047-0.093904c0.20926-0.051647 0.66348-0.11859 1.0094-0.14876l0.62892-0.054861v2.9398l1.4608 0.024688c0.84577 0.014293 1.4945 0.058441 1.5408 0.10485 0.0506 0.050727 0.06208 0.43593 0.03126 1.049l-0.04871 0.9688h-2.9842l-0.0012 1.2865c-6.65e-4 0.70756-0.0295 1.331-0.06407 1.3855-0.04887 0.076964-1.554 0.4156-1.8472 0.4156-0.03361 0-0.09799-0.068909-0.14306-0.15313z" fill="#e76f00"/>
 </g>
 <metadata>
  <rdf:RDF>
   <cc:Work rdf:about="">
    <dc:title>element plus-logo-small 副本</dc:title>
   </cc:Work>
  </rdf:RDF>
 </metadata>
</svg>
